<?xml version="1.0" encoding="utf-8"?><!-- Uploaded to: SVG Repo, www.svgrepo.com, Generator: SVG Repo Mixer Tools -->
<svg fill="#000000" width="800px" height="800px" viewBox="0 0 24 24" id="ticket" dataname="Flat Color" xmlns="http://www.w3.org/2000/svg" className="icon flat-color"><path id="primary" d="M21,10a1,1,0,0,0,1-1V6a2,2,0,0,0-2-2H4A2,2,0,0,0,2,6V9a1,1,0,0,0,1,1,2,2,0,0,1,0,4,1,1,0,0,0-1,1v3a2,2,0,0,0,2,2H20a2,2,0,0,0,2-2V15a1,1,0,0,0-1-1,2,2,0,0,1,0-4Z" style="fill: rgb(0, 0, 0);"></path><path id="secondary" d="M10,16a1,1,0,0,0-1,1v3h2V17A1,1,0,0,0,10,16Zm0-6a1,1,0,0,0-1,1v2a1,1,0,0,0,2,0V11A1,1,0,0,0,10,10ZM9,4V7a1,1,0,0,0,2,0V4Z" style="fill: rgb(44, 169, 188);"></path></svg>